<svg id="layer" xmlns="http://www.w3.org/2000/svg" viewBox="0 0 216.42 377.82"><defs><style>.cls-1{fill:#c6c6c6;}.cls-2{fill:#8e8e8e;}.cls-3{fill:#5d5d5d;}.cls-4{fill:#eb3d00;}.cls-5{fill:#c12d00;}.cls-6{fill:#ff5b29;}.cls-7{fill:#b76b37;}.cls-8{fill:#ef9659;}.cls-9{fill:#e28444;}.cls-10{fill:#fcaa70;}.cls-11{fill:#ffc28a;}.cls-12{fill:#d87939;}.cls-13{fill:#664330;}.cls-14{fill:#512f20;}.cls-15{fill:#3d2014;}.cls-16{fill:#8e5b44;}.cls-17{fill:#fff;}.cls-18{fill:#050100;}.cls-19{fill:#681b0f;}.cls-20{fill:#7c2615;}.cls-21{fill:#d8d8d8;}.cls-22{fill:#a03d2d;}</style></defs><ellipse class="cls-1" cx="121.73" cy="370.28" rx="70.25" ry="7.54"/><path class="cls-2" d="M270.44,401c0,2.81-26.31,5.08-58.77,5.08S152.9,403.78,152.9,401s26.31-5.08,58.77-5.08S270.44,398.17,270.44,401Z" transform="translate(-95.01 -31.89)"/><path class="cls-3" d="M233.64,400.39c0,1.65-13.27,3-29.64,3s-29.63-1.33-29.63-3,13.26-3,29.63-3S233.64,398.74,233.64,400.39Z" transform="translate(-95.01 -31.89)"/><path class="cls-4" d="M220,323.23H185.88c-2.94,4.16-10.53,16.94-5.27,31.79-1.89,7.56,0,9.83.76,10.21-1.52,5.68,3.78,20.43,4.54,29.13,4.16.38,6.05-.38,6.05-.38s1.51-14.75,4.54-18.53,1.13-11-1.14-13.24c1.72-3,3.88-9.17,5.55-16.77a6.86,6.86,0,0,0,2.09.45,4.79,4.79,0,0,0,1.93-.45c1.68,7.6,3.84,13.72,5.55,16.77-2.27,2.27-4.16,9.45-1.14,13.24S213.88,394,213.88,394s1.9.76,6.06.38c.75-8.7,6.05-23.45,4.54-29.13.75-.38,2.64-2.65.75-10.21C230.49,340.17,222.9,327.39,220,323.23Z" transform="translate(-95.01 -31.89)"/><path class="cls-5" d="M226.53,338.85c-.05,6.22-1.3,12.24-5.37,16.52a9.28,9.28,0,0,1-2.86,2.1c1.83.14,4,.48,5.08,1.8,1.39,1.77,0,4-2,4.33-2.21.37-5.92.06-7.62-1.65s-.5-3.38,1.12-4.19a5,5,0,0,1-2.78-2.84c-2.52-5.47-4.82-12.62-1.38-17.44-3.9,2.76-5.51,6-8.38,5.63-4.38-.53-2.07-3.45-2.44-3.47a9,9,0,0,1-5.81-2.15c-1-.95-2.64-3.52-4.16-4.51a30.68,30.68,0,0,1,2.34,12.46c-.3,5-2.93,9.44-.8,14.31.27.62.52,1.23.77,1.85a.65.65,0,0,1,.31.79c2.16,5.65.88,11.62-3.07,17-.74,2.49-1.5,10.15-2.41,9.53-1.78-1.23-4.46-15.2-4.29-18.19.1-1.68.45-3.66,2-4.61,1.8-1.08,4.08-1.41,5.59-2.78-2.86.93-7.19,2.18-9.77,1.09a2,2,0,0,0,.77.8c-1.52,5.68,3.78,20.43,4.54,29.13,4.16.38,6.05-.38,6.05-.38s.55-14.94,3.58-18.72,1.35-10.82-.92-13.09c1.71-3.05,3.83-9.51,5.51-17.11a10.74,10.74,0,0,0,2.87.83,4.79,4.79,0,0,0,1.93-.45c1.68,7.6,3.84,13.72,5.55,16.77-2.27,2.27-4.16,9.45-1.14,13.24S213.88,394,213.88,394s1.4.8,5.56.42c.76-8.7,5.74-23.46,4.23-29.13.75-.38,2.69-2.66.8-10.22C226.54,349.2,227.38,343.65,226.53,338.85ZM218,374.36c-.16.88-.6,13.2-2.86,10.65-1.53-1.72-3.18-7.86-4.48-9.75s-1.66-5.49-1.41-7.93c.29-2.7,3.36-5.74,6.42-3.16A12,12,0,0,1,218,374.36Z" transform="translate(-95.01 -31.89)"/><path class="cls-5" d="M195.78,329.88c6.27,1.57,12.4.68,18.66-.44,2.82-.51,6.59.59,9.23,2.19-1.42-3.28-2.69-6.95-3.71-8.4H187.27C189.39,326.2,191.57,328.83,195.78,329.88Z" transform="translate(-95.01 -31.89)"/><path class="cls-6" d="M186.75,342.69c.34-2.31,2.95-11.69-1.16-11.93-2.34-.13-3.56,3.78-4.11,5.33-2.27,6.41.45,13,.36,19.61,0,2.71-2.46,5,1.47,6.12,1.79.5,4.38-.31,4-2.59-.45-2.75-4.13-2.66-4.59-5-.41-2,1.89-2.79,2.54-4.16C186.4,347.72,186.36,345.34,186.75,342.69Z" transform="translate(-95.01 -31.89)"/><path class="cls-6" d="M190.25,372.21c1.3-2.61,1.84-5.79-1.18-5.81-3.51,0-3.76,7.05-2,9C187.61,376.1,189.19,374.34,190.25,372.21Z" transform="translate(-95.01 -31.89)"/><path class="cls-6" d="M208.15,332.43c-3.31,0-6,.51-9.29.14-2.25-.26-4.62-.24-2,2.23,1.08,1,3.1,1,4.06,2.13.61.73.35,2.28.86,2.79C204.59,342.49,214.64,332.52,208.15,332.43Z" transform="translate(-95.01 -31.89)"/><path class="cls-6" d="M220.13,346c-.06-2.69-1.65-9.11-4.13-10.57-4.84-2.87-4.69,8.47-4.39,10.53.42,2.91,2.07,8.21,5.21,9.52C220.44,357,220.17,347.84,220.13,346Z" transform="translate(-95.01 -31.89)"/><path class="cls-6" d="M214.35,359.48c.06,2.79,4.72,3.68,6.09,1.38C222.2,357.93,214.29,356.39,214.35,359.48Z" transform="translate(-95.01 -31.89)"/><path class="cls-6" d="M211.74,374.54c5.31,7.91,1.66-16.22-1.72-7.11C209.28,369.43,210.62,372.88,211.74,374.54Z" transform="translate(-95.01 -31.89)"/><path class="cls-7" d="M123.25,213.7c.57.88-.19,2-1.71,2.43s-3.22.12-3.79-.76.19-2,1.7-2.43S122.67,212.82,123.25,213.7Z" transform="translate(-95.01 -31.89)"/><path class="cls-8" d="M106.68,266c-5.88,2-11,.92-10.26-5.36-2.29-8-1.83-20.82,1.69-26.94a123.33,123.33,0,0,0,9.4-22.91c1.22-4.9,8.2-16.89,14.79-13.83s7.34,15.92,2.45,16.84a49.82,49.82,0,0,0-8.42,2.29c-1.23,5.82-3.22,12.25-1.38,15.47S130.72,257.87,106.68,266Z" transform="translate(-95.01 -31.89)"/><path class="cls-9" d="M126.27,204.29c-.58-2-14,4.34-11.68,6.13,0,1.38-1.07,2.37-3.75,2.45-1.88-.55.83,14-2.6,19.44-13.75,21.83,6.89,18.68,12.06,13A42.58,42.58,0,0,0,115,231.7c-1.84-3.22.68-9.82,1.91-15.63,2.45-.77,1.16-.4,5.91-1.9C126.09,213.13,127.57,208.5,126.27,204.29Z" transform="translate(-95.01 -31.89)"/><path class="cls-8" d="M122.22,242c-3.73,2.42-23.64,20.64-19.86,23.95s35.42,12.83,47.18-8.4C153.59,243.27,145.55,226.88,122.22,242Z" transform="translate(-95.01 -31.89)"/><path class="cls-9" d="M135,236.34c-3.59.7-7.82,2.47-12.75,5.67-2.53,1.64-12.54,10.59-17.51,17.19a104.5,104.5,0,0,1,12.46-11.34,39.14,39.14,0,0,1,11.73-5.45Z" transform="translate(-95.01 -31.89)"/><path class="cls-9" d="M119.49,247.81c.84,4.71,8.08,5.08,11.71,6.39,4.13,1.49-2.45,8.58-9.18,12.25-4.11,2.24,18.52,8.27,27.52-8.89C153.59,243.27,142.81,232.68,119.49,247.81Z" transform="translate(-95.01 -31.89)"/><path class="cls-8" d="M138.14,232.71c-2.06-.11-8-1.89-12.13-.32s-6.78,4.89-6.78,13.87,22.22,4.57,26.64.79S144.29,233,138.14,232.71Z" transform="translate(-95.01 -31.89)"/><path class="cls-10" d="M136,246.88c6.71-4,2.8-12.22.15-14.46-2.74-.47-7-1.24-10.11,0a9.23,9.23,0,0,0-5.88,6.49C117.58,252.06,131.42,249.58,136,246.88Z" transform="translate(-95.01 -31.89)"/><path class="cls-11" d="M136.77,235.39c0,1.6-2.91,2.9-6.51,2.9s-6.51-1.3-6.51-2.9,2.92-2.89,6.51-2.89S136.77,233.8,136.77,235.39Z" transform="translate(-95.01 -31.89)"/><path class="cls-11" d="M131.06,239c0,1-1.74,1.73-3.88,1.73s-3.88-.77-3.88-1.73,1.73-1.72,3.88-1.72S131.06,238,131.06,239Z" transform="translate(-95.01 -31.89)"/><path class="cls-7" d="M121.21,214.7c-2,.3-2.51-1.86-1-2.91a4,4,0,0,1,2.41-.89,2,2,0,0,1-.63-1.78,8.25,8.25,0,0,1-5.28,3.21,3.68,3.68,0,0,1,.23,3.74Z" transform="translate(-95.01 -31.89)"/><path class="cls-9" d="M104.57,264.15c-2-1.23-3.68,1.79-5.52.31s-2.87-10.58-4-12.36a39.63,39.63,0,0,0,1.33,8.52c-.62,5.14,2.71,6.78,7.16,6.12,5.23,2.8,22.44,7.36,35.3,1C143,259.25,127.07,278.08,104.57,264.15Z" transform="translate(-95.01 -31.89)"/><path class="cls-10" d="M99.32,236c-1.37,3.19-5.88,19.67.5,18.5,5.82-1.07,1.38-9.8,2.32-16.18C103.27,230.64,102,229.86,99.32,236Z" transform="translate(-95.01 -31.89)"/><path class="cls-10" d="M106.33,259.1c2.1-2.48,8.13-10.19,11.75-8.42,9.83,4.82,9.22,9.34,1.56,11S104.24,261.56,106.33,259.1Z" transform="translate(-95.01 -31.89)"/><path class="cls-10" d="M108.44,209.75c1.22-3.53,7.74-14.56,12.47-12.66s7.26,6,1.4,6.51C119.06,203.86,107,214,108.44,209.75Z" transform="translate(-95.01 -31.89)"/><path class="cls-10" d="M107.44,220.73c1.58-4.73,2.82-11.71,2.21-11.91s-2.83,6.44-4.42,11.17-1.32,5.54-.71,5.74S105.85,225.45,107.44,220.73Z" transform="translate(-95.01 -31.89)"/><path class="cls-11" d="M121.13,197.75c.61.87-.46,2.68-2.4,4s-4,1.77-4.61.9.47-2.67,2.4-4S120.52,196.88,121.13,197.75Z" transform="translate(-95.01 -31.89)"/><path class="cls-11" d="M114.61,202.16c.45.37.15,1.47-.67,2.47s-1.84,1.51-2.29,1.15-.15-1.48.67-2.48S114.17,201.79,114.61,202.16Z" transform="translate(-95.01 -31.89)"/><path class="cls-7" d="M283,213.7c-.57.88.19,2,1.71,2.43s3.22.12,3.79-.76-.19-2-1.71-2.43S283.54,212.82,283,213.7Z" transform="translate(-95.01 -31.89)"/><path class="cls-8" d="M299.53,266c5.87,2,11,.92,10.25-5.36,2.3-8,1.84-20.82-1.68-26.94a123.33,123.33,0,0,1-9.4-22.91c-1.22-4.9-8.21-16.89-14.79-13.83s-7.35,15.92-2.45,16.84a49.82,49.82,0,0,1,8.42,2.29c1.23,5.82,3.22,12.25,1.38,15.47S275.49,257.87,299.53,266Z" transform="translate(-95.01 -31.89)"/><path class="cls-9" d="M279.64,203.82c.59-2,14,4.34,11.68,6.13,0,1.38,1.07,2.37,3.75,2.45,1.88-.55-3.65,13.93-.22,19.37,13.75,21.83-4.06,18.75-9.23,13a42.58,42.58,0,0,1,5.32-13.59c1.84-3.22-.69-9.82-1.91-15.64-2.45-.76-1.17-.39-5.92-1.89C279.83,212.66,278.35,208,279.64,203.82Z" transform="translate(-95.01 -31.89)"/><path class="cls-8" d="M284,242c3.74,2.42,23.65,20.64,19.86,23.95s-35.41,12.83-47.18-8.4C252.62,243.27,260.66,226.88,284,242Z" transform="translate(-95.01 -31.89)"/><path class="cls-9" d="M271.24,236.34c3.59.7,7.82,2.47,12.74,5.67,2.54,1.64,12.55,10.59,17.51,17.19A103.84,103.84,0,0,0,289,247.86a39.25,39.25,0,0,0-11.73-5.45Z" transform="translate(-95.01 -31.89)"/><path class="cls-12" d="M286.72,247.81c-.85,4.71-8.08,5.08-11.71,6.39-4.14,1.49,2.44,8.58,9.18,12.25,4.11,2.24-13.33,11.56-27.53-8.89C252.62,243.27,263.4,232.68,286.72,247.81Z" transform="translate(-95.01 -31.89)"/><path class="cls-8" d="M268.07,232.71c2.06-.11,8-1.89,12.13-.32s6.78,4.89,6.78,13.87-22.22,4.57-26.64.79S261.92,233,268.07,232.71Z" transform="translate(-95.01 -31.89)"/><path class="cls-10" d="M270.24,246.88c-6.72-4-2.8-12.22-.15-14.46,2.74-.47,7-1.24,10.11,0a9.23,9.23,0,0,1,5.88,6.49C288.63,252.06,274.79,249.58,270.24,246.88Z" transform="translate(-95.01 -31.89)"/><path class="cls-11" d="M269.44,235.39c0,1.6,2.91,2.9,6.51,2.9s6.5-1.3,6.5-2.9-2.91-2.89-6.5-2.89S269.44,233.8,269.44,235.39Z" transform="translate(-95.01 -31.89)"/><ellipse class="cls-11" cx="184.02" cy="207.09" rx="3.88" ry="1.73"/><path class="cls-7" d="M285,214.7c2,.3,2.51-1.86,1.05-2.91a4,4,0,0,0-2.41-.89,2,2,0,0,0,.63-1.78,8.25,8.25,0,0,0,5.28,3.21,3.68,3.68,0,0,0-.23,3.74Z" transform="translate(-95.01 -31.89)"/><path class="cls-12" d="M300,262.28c2-1.24,4.18,1.43,6,0s8-15.86-.52-33.62c9.39,13.83,5,29.53,4.27,32,.63,5.14-2.7,6.78-7.15,6.12-5.23,2.8-22.44,7.36-35.3,1C273.73,246.43,277.52,276.21,300,262.28Z" transform="translate(-95.01 -31.89)"/><path class="cls-10" d="M300.49,234.69c1.51,2.34,8.77,7.45,3.5,14.5-2.66,3.57-.38-4.23-5.51-13.09C295.34,230.69,297.59,230.16,300.49,234.69Z" transform="translate(-95.01 -31.89)"/><path class="cls-10" d="M299.88,259.1c-2.11-2.48-8.14-10.19-11.75-8.42-9.83,4.82-9.22,9.34-1.57,11S302,261.56,299.88,259.1Z" transform="translate(-95.01 -31.89)"/><path class="cls-10" d="M297.77,209.75c-1.23-3.53-7.74-14.56-12.47-12.66s-7.26,6-1.4,6.51C287.15,203.86,299.26,214,297.77,209.75Z" transform="translate(-95.01 -31.89)"/><path class="cls-10" d="M298.77,220.73C297.18,216,296,209,296.56,208.82s2.83,6.44,4.42,11.17,1.32,5.54.71,5.74S300.36,225.46,298.77,220.73Z" transform="translate(-95.01 -31.89)"/><path class="cls-11" d="M281.82,202.1c.49.7,2.15.39,3.71-.7s2.44-2.53,2-3.23-2.15-.39-3.72.69S281.33,201.4,281.82,202.1Z" transform="translate(-95.01 -31.89)"/><path class="cls-11" d="M284.71,201.86c.16.44,1.08.52,2.06.18s1.65-1,1.49-1.42-1.07-.52-2.05-.17S284.56,201.42,284.71,201.86Z" transform="translate(-95.01 -31.89)"/><path class="cls-8" d="M201.9,242.26v63.85H179.08c-5.27-15.24-12.49-14.1-20.2-25.12-10.79-15.42-13.37-27.56-13.37-38.73Z" transform="translate(-95.01 -31.89)"/><path class="cls-7" d="M176.28,251.46c1.89-3.25,3.93-6.39,6-9.51l-40,1.68s2.09,8,4.77,12.51c3.17,7.42,6.59-1.78,16.29,19.76C167.5,267.65,171.65,259.4,176.28,251.46Z" transform="translate(-95.01 -31.89)"/><path class="cls-8" d="M204,242.26v63.85H226.8C232.07,290.87,239.29,292,247,281c10.8-15.42,13.38-27.56,13.38-38.73Z" transform="translate(-95.01 -31.89)"/><path class="cls-10" d="M244.2,280.89c-4.1,5-12.64,9.83-14.33,16.6a34.27,34.27,0,0,1,7.72-8.08,42.17,42.17,0,0,0,8.65-8.94,87.72,87.72,0,0,0,7.15-12.08A141.25,141.25,0,0,1,244.2,280.89Z" transform="translate(-95.01 -31.89)"/><path class="cls-7" d="M229.59,251.46c-1.89-3.25-3.92-6.39-6-9.51l38.5-1s-1.58,16.32-4.93,18.31c-5.16,3.07-10.89,10-14.64,16.67C238.37,267.65,234.22,259.4,229.59,251.46Z" transform="translate(-95.01 -31.89)"/><path class="cls-8" d="M174.83,281.15c0,11.32,6,41.94,13.51,43.78a60.39,60.39,0,0,0,13.52,1.82v0h2.3v0a60.39,60.39,0,0,0,13.52-1.82c7.47-1.84,13.51-32.46,13.51-43.78Z" transform="translate(-95.01 -31.89)"/><path class="cls-10" d="M268.07,232.71c-8.16-14.63-25.23-9.89-26.63-7.71-3.57-5.56-12.89-6.37-12.89-6.37-7.26-1.23-16.18,1.56-25.55,6.67-9.37-5.11-18.29-7.9-25.55-6.67,0,0-9.31.81-12.89,6.37-1.4-2.18-17.91-9.47-26.42,7.71,4.73,13.55,15.68,23.12,21.25,23.51-.12,11.08,2.46,20.2,7.87,26h71.48c5.41-5.8,8-14.92,7.87-26C252.18,255.83,262.53,248.36,268.07,232.71Z" transform="translate(-95.01 -31.89)"/><path class="cls-8" d="M198.87,244.4c2.54,6.64,4.83,24.19-1.82,28.56-9.63,6.31-31.8-8.89-39.36-30.8-2.68,2.31-.07,7,2.52,13.87,5,13.28,14.89,31.16,20.22,31.16,8.07,0,22.29-1.15,22.55-6.2.29-5.54,1.43-11.94,0-30.54C203,250.45,202.23,244.4,198.87,244.4Z" transform="translate(-95.01 -31.89)"/><path class="cls-8" d="M207.82,270.2c4.53,4.93,34-3,45.55-29.19,6.75,2.25,12.78-4.6,12.78-4.6-.78,3.91-5.09,11.89-19.54,19.81-.8,20.47-16.68,31-21.32,31-8.07,0-22.29-1.15-22.55-6.2-.3-5.54-1.43-11.94,0-30.54C202.74,250.45,205,267.08,207.82,270.2Z" transform="translate(-95.01 -31.89)"/><path class="cls-8" d="M138.43,233.49c3.34,12.77,21,27.07,19.26,8.67C153.28,241,143.66,242.64,138.43,233.49Z" transform="translate(-95.01 -31.89)"/><path class="cls-9" d="M139,235.3c3.56,15.06,16.12,20.62,20.39,20.92-.18,16.65,5.73,28.87,18.18,32.09,1,.31,4.76.49,9.36.49,5.82,0,10.71-4.46,16.53-4.44,5.6,0,11.09,4.44,16.69,4.44a43.59,43.59,0,0,0,8.28-.49c12.45-3.22,18.37-15.44,18.18-32.09,6.15.12,17.39-9.08,19.54-19.81,0,0-8,15.13-11.45,5.73-11.14,23.92-41.14,44.36-51.7,34.72-7.35,7.58-23.69,1.27-31.59-6-3.67-3.39-12.35-17.82-14-22.71A24.91,24.91,0,0,1,139,235.3Z" transform="translate(-95.01 -31.89)"/><path class="cls-8" d="M223.67,210.28,180.5,211l-2,7.52s21.06,15.44,26.8,15.44,23.51-15.26,23.51-15.26Z" transform="translate(-95.01 -31.89)"/><path class="cls-11" d="M184.17,232.54c-25.72-2.3-12.63-10.79-6.65-10.32s13.64,7.52,16.52,9.86C198.5,235.7,187,232.79,184.17,232.54Z" transform="translate(-95.01 -31.89)"/><path class="cls-7" d="M175.9,278.93c-.48.9-2.11.95-3.63.12s-2.36-2.23-1.88-3.12,2.12-.94,3.64-.11S176.39,278,175.9,278.93Z" transform="translate(-95.01 -31.89)"/><path class="cls-7" d="M231.17,278.93c.48.9,2.11.95,3.63.12s2.37-2.23,1.88-3.12-2.11-.94-3.63-.11S230.68,278,231.17,278.93Z" transform="translate(-95.01 -31.89)"/><path class="cls-11" d="M210.56,239.64c-2.13,1.14-1.78,12.88,0,18.43s16.43-.45,21.6-8.72C243.46,231.32,217.37,236,210.56,239.64Z" transform="translate(-95.01 -31.89)"/><path class="cls-11" d="M190.14,234.84c8.27,6.2,9.65,22.73,5.28,27.55-9.27,10.25-24.11-.23-26-10.79C165,227.33,178.92,226.42,190.14,234.84Z" transform="translate(-95.01 -31.89)"/><path class="cls-9" d="M202.59,286.4s-1.6,9.2-10.51,9.2c-4.53,0-6.39-.58-7.21-2.68-.81,4.08,2.45,6.18,6.3,6.18C197.35,299.1,202.59,298.28,202.59,286.4Z" transform="translate(-95.01 -31.89)"/><path class="cls-9" d="M217.89,291.23s2.4,5.08-6.51,5.08c-4.53,0-6.75-.47-8.84-2.14,1.67,3.26,6.21,4.93,10.06,4.93C218.78,299.1,222.33,295.67,217.89,291.23Z" transform="translate(-95.01 -31.89)"/><path class="cls-9" d="M202.59,310.64s-1.6,9.2-10.51,9.2c-4.53,0-6.39-.58-7.21-2.68-.81,4.08,2.45,6.18,6.3,6.18C197.35,323.34,202.59,322.53,202.59,310.64Z" transform="translate(-95.01 -31.89)"/><path class="cls-9" d="M218.05,315.47s2.21,5.08-6,5.08c-4.17,0-6.21-.46-8.14-2.14,1.54,3.26,5.72,4.93,9.26,4.93C218.86,323.34,222.13,319.91,218.05,315.47Z" transform="translate(-95.01 -31.89)"/><path class="cls-9" d="M202.62,297.12s-1.77,10.22-11.67,10.22c-5,0-7.1-.65-8-3-.9,4.53,2.73,6.86,7,6.86C196.8,311.22,202.62,310.32,202.62,297.12Z" transform="translate(-95.01 -31.89)"/><path class="cls-9" d="M219.61,302.48s2.67,5.64-7.22,5.64c-5,0-7.5-.51-9.83-2.37,1.86,3.61,6.91,5.47,11.18,5.47C220.6,311.22,224.54,307.41,219.61,302.48Z" transform="translate(-95.01 -31.89)"/><ellipse class="cls-7" cx="107.35" cy="286.77" rx="1.04" ry="1.97"/><path class="cls-10" d="M197.4,290c.08.63-1.74,1.22-3.86,2-2.71,1-4.36,1-4.44.38s2.14-1.59,3.74-2.1C195.32,289.46,197.31,289.37,197.4,290Z" transform="translate(-95.01 -31.89)"/><path class="cls-10" d="M197.22,301.6c.09.69-2.53,3.13-4.36,3.38s-4.67-.11-4.76-.8,2.35-1.75,4.11-2.31C194.93,301,197.13,300.91,197.22,301.6Z" transform="translate(-95.01 -31.89)"/><path class="cls-10" d="M211.05,302.24c-.3.31-1,.78-3.39,1-1,.11-2.41.05-2.11-.26a8.09,8.09,0,0,1,3-1.4C210.57,301.25,211.36,301.93,211.05,302.24Z" transform="translate(-95.01 -31.89)"/><path class="cls-10" d="M210.73,291.1c-.3.31-1,.78-3.39,1-1.05.11-2.41.05-2.11-.26a8.23,8.23,0,0,1,3-1.41C210.25,290.11,211,290.79,210.73,291.1Z" transform="translate(-95.01 -31.89)"/><path class="cls-10" d="M197.4,314c.08.63-1.74,1.23-3.86,2-2.71,1-4.36,1-4.44.38s2.14-1.59,3.74-2.1C195.32,313.47,197.31,313.38,197.4,314Z" transform="translate(-95.01 -31.89)"/><path class="cls-10" d="M210.73,315.11c-.3.31-1,.78-3.39,1-1.05.11-2.41.05-2.11-.26a8.09,8.09,0,0,1,3-1.4C210.25,314.12,211,314.8,210.73,315.11Z" transform="translate(-95.01 -31.89)"/><path class="cls-9" d="M216.78,288.34a7.48,7.48,0,0,1,5.85,7.92c-1.52,29-5.46,27.9-19.89,27.9s-19,2.45-24.46-27.14c-.38-2.11-.23-7,4.19-8.28l-7.64-7.59c0,11.32,6,41.94,13.51,43.78a60.39,60.39,0,0,0,13.52,1.82v0h2.3v0a60.39,60.39,0,0,0,13.52-1.82c7.47-1.84,13.51-32.46,13.51-43.78Z" transform="translate(-95.01 -31.89)"/><path class="cls-8" d="M205.53,234.14c2.19,1.84,10.85.32,16.21-2.28,4.56-2.21,11.07-12.08,6.72-13.13S205.53,234.14,205.53,234.14Z" transform="translate(-95.01 -31.89)"/><path class="cls-12" d="M225.88,216,180.5,211l-1.3,4.88s14.94,9.38,24.72,12.64c3.67,1.23,1.62,4.06,1.38,5.44,8.52-.91,27.06-14.88,23.51-15.26C225.31,219.48,225.88,216,225.88,216Z" transform="translate(-95.01 -31.89)"/><path class="cls-12" d="M229.45,286.94a47.1,47.1,0,0,1-8.61.49c-5.82,0-11.53-4.42-17.35-4.44-6.05,0-11.13,4.44-17.18,4.44-4.78,0-8.74-.18-9.73-.49a22.2,22.2,0,0,1-9.6-5,21.08,21.08,0,0,0,10.59,6.38c1,.31,4.76.49,9.36.49,5.82,0,10.71-4.46,16.53-4.44,5.6,0,11.09,4.44,16.69,4.44a43.59,43.59,0,0,0,8.28-.49,21.08,21.08,0,0,0,10.41-6.18A22.44,22.44,0,0,1,229.45,286.94Z" transform="translate(-95.01 -31.89)"/><path class="cls-8" d="M231.51,284a25.63,25.63,0,0,1-9.6,2.85,18.13,18.13,0,0,0,20.79-14.53A25.5,25.5,0,0,1,231.51,284Z" transform="translate(-95.01 -31.89)"/><ellipse class="cls-11" cx="58.1" cy="193.98" rx="6.51" ry="2.89"/><path class="cls-11" d="M152.88,229.36c0,.68-1.25,1.24-2.8,1.24s-2.79-.56-2.79-1.24,1.25-1.24,2.79-1.24S152.88,228.67,152.88,229.36Z" transform="translate(-95.01 -31.89)"/><path class="cls-8" d="M297.41,267.33c-8.22,2.75-24.47,5-34.53-4.18C276.94,272.5,297.41,267.33,297.41,267.33Z" transform="translate(-95.01 -31.89)"/><path class="cls-10" d="M188.33,188.26s-4.66-6.16-6.71-3.47,3.55,10.58,4.19,9.87S188.33,188.26,188.33,188.26Z" transform="translate(-95.01 -31.89)"/><path class="cls-8" d="M185.72,188.68c-.9-2-3.95-5-4.07-1.53.43,3.11,3.07,6.66,3.36,6s-.92-1.47-.86-2.64S186.17,189.69,185.72,188.68Z" transform="translate(-95.01 -31.89)"/><path class="cls-9" d="M183.18,188.09c-.48,1.54,1.64,4.25,1.34,3.7a2.32,2.32,0,0,1-.37-1.25c0-.68.76-.85,1.23-1.1C185.7,189.28,183.68,186.47,183.18,188.09Z" transform="translate(-95.01 -31.89)"/><path class="cls-8" d="M217.57,188.26s4.66-6.16,6.71-3.47-3.55,10.58-4.18,9.87S217.57,188.26,217.57,188.26Z" transform="translate(-95.01 -31.89)"/><path class="cls-9" d="M220.18,188.68c.91-2,3.95-5,4.07-1.53-.43,3.11-3.06,6.66-3.36,6s.92-1.47.86-2.64S219.73,189.69,220.18,188.68Z" transform="translate(-95.01 -31.89)"/><path class="cls-7" d="M222.73,188.09c.48,1.54-1.65,4.25-1.34,3.7a2.4,2.4,0,0,0,.36-1.25c0-.68-.76-.85-1.23-1.1S222.22,186.47,222.73,188.09Z" transform="translate(-95.01 -31.89)"/><path class="cls-10" d="M189.28,158.24c-6.27,7.52-1.1,20.86-1.1,26s-12.45,25.68-11.85,28.05,23.11,15,28.64,15,25.71-13,24.69-16c-1.18-3.43-12.25-23.11-12.25-26.66s5.46-18.15.71-25.13C211.41,149.62,196.2,149.94,189.28,158.24Z" transform="translate(-95.01 -31.89)"/><path class="cls-8" d="M229.66,211.29c-1.18-3.43-12.25-23.11-12.25-26.66s7.86-19.55,3.11-26.53c-6.72-9.88-28-7.57-34.91.73-6.27,7.52,2.57,20.27,2.57,25.4a10.46,10.46,0,0,1-.93,3.83c-1.5,3.44,3.35.12,4.65-4.94a57.07,57.07,0,0,0,1.53-15c-.21-2.53,2.95,1.95,15.46.38,1.23-.15,2.6,6.33,2.6,6.33,0,.52.18,2-.19,1.62-1.69-1.74-6.13-4.23-6-1.06.06,1.5.49,8.28.71,9.07.27,2.06,2.5,2.47,4.92.55,1.57,0,2.27-3.33,2.44-2.79.92,2.79,4.6,12.39,5,15.57a4,4,0,0,1-3.47,4.32c-3.06.47-11.71-3.37-9.14-5.59a14.7,14.7,0,0,0-1.73-10c1.07,4.75.69,9.88-.46,10.4-1.54.7-4.06-.37-4.06-.37,1.09,2.13,3.13,5.46.39,6.81-3.26,1.61-7.57-.52-7.57-.52-1.31-.85.72-6.33-.2-6-1.44-1-3.94,6.86-9.76,11.79-2.71,2.31,1.72,1,1.72,1,2.5.38,5.4,6.09,4,6.77-4.07,2-11.31-5.14-10.3-8.4-1,2.18-1.61,3.79-1.46,4.36.59,2.37,23.11,15,28.64,15S230.68,214.28,229.66,211.29Zm-25.28,9.45a4.18,4.18,0,0,0-.19,2.72c-5.52,0-4.34-3-3.68-3.44,4.13-2.53,9.11-.08,9.07,1.6C209.54,223.52,205.87,224.76,204.38,220.74Z" transform="translate(-95.01 -31.89)"/><path class="cls-9" d="M191.62,172.42c1.2-1.91.88-6,.11-7.4,2.65,1.46,15.13,2.86,19.87,1.27-.79,3,6.41,11.44,7.49,12,2-6.35,4.69-15.41,1.43-20.21-6.72-9.88-28-7.57-34.91.73C179.34,166.35,190,174.6,191.62,172.42Z" transform="translate(-95.01 -31.89)"/><path class="cls-8" d="M200.36,177.11l-6.16,2.49c-.65,1,1.88,1.26.71,5.28,1.81.16,4.64,1.83,5,0S200.87,178.3,200.36,177.11Z" transform="translate(-95.01 -31.89)"/><path class="cls-13" d="M187.25,188.06s-1.34-6.76-3.75-10.73-9.1-13.54-.31-17.94c-1.26-3.45-5.55-5.87,4.5-12.67s18.85-7.64,18.48-10.63c2.16,1.45,2.29,4.45,1.71,5.18,2.37-1.17,16-1.41,15.55-4,1,1.56.35,8.45-3.19,10,2.9.64,6.33,3.41,6,7.05-.8-.14-1.47,1.61-1.33,2.48,4.49,14.44-7.41,18.09-6.8,30.59,0,0-4.95-7.47-4.72-13.17S216.73,161.53,212,164s-18.7,1.05-25.88-2.66a35.9,35.9,0,0,0,5.46,5.78S192.58,183.91,187.25,188.06Z" transform="translate(-95.01 -31.89)"/><path class="cls-14" d="M187.25,188.06s-1.34-6.76-3.75-10.73a56.16,56.16,0,0,1-3.17-5.58c10.24,13.1,11.57-4.42,2-11.9.26-.16.53-.31.82-.46-.65-1.76-2.09-3.26-2-5.22,6.5,6.22,21.73,1.49,26.17-4,.52,1.19-.54,4.3-.54,4.3,2-.7,11.08-1.64,15.14,5.65.65-2.52,0-6.31-2.79-7.71,4,.06,6.83.89,7.09,1.83-.8-.14-1.47,1.61-1.33,2.48,4.49,14.44-7.41,18.09-6.8,30.59,0,0-4.95-7.47-4.72-13.17S216.73,161.53,212,164s-15.55,2.39-22.73-1.32a7.81,7.81,0,0,0,2.31,4.44S192.58,183.91,187.25,188.06Z" transform="translate(-95.01 -31.89)"/><path class="cls-15" d="M184.43,159c3,2.11,22.37,8.89,34.24.27C210.45,161.84,196.69,162.85,184.43,159Z" transform="translate(-95.01 -31.89)"/><path class="cls-15" d="M190.59,160.57c2.41,1.18,17,3.94,24.58-3.53A45,45,0,0,1,190.59,160.57Z" transform="translate(-95.01 -31.89)"/><path class="cls-15" d="M213.42,174.17c-.23,5.7,4.72,13.17,4.72,13.17-.52-10.63,8-14.87,7.8-24.78C224.29,170.17,218.12,178.81,213.42,174.17Z" transform="translate(-95.01 -31.89)"/><path class="cls-16" d="M189.6,147.86c2.56-2.22,15-4.23,16.05-7.8a5.09,5.09,0,0,1,.55,3.89c2.51-.6,12.36-1.75,13.56-2.92C212.89,148.69,201.76,144.13,189.6,147.86Z" transform="translate(-95.01 -31.89)"/><ellipse class="cls-17" cx="102.38" cy="153.12" rx="2.46" ry="1.86"/><path class="cls-18" d="M198.94,185.17a1.55,1.55,0,1,1-1.55-1.55A1.55,1.55,0,0,1,198.94,185.17Z" transform="translate(-95.01 -31.89)"/><path class="cls-15" d="M197.39,183.9a3.5,3.5,0,0,1,2.49,1,2.58,2.58,0,0,0-5,0A3.47,3.47,0,0,1,197.39,183.9Z" transform="translate(-95.01 -31.89)"/><path class="cls-17" d="M198.62,184.64a.61.61,0,1,1-1.22,0,.61.61,0,1,1,1.22,0Z" transform="translate(-95.01 -31.89)"/><path class="cls-17" d="M198.05,185.37a.39.39,0,1,1-.38-.38A.38.38,0,0,1,198.05,185.37Z" transform="translate(-95.01 -31.89)"/><path class="cls-17" d="M210.92,185c0,1-1.1,1.86-2.46,1.86S206,186,206,185s1.1-1.86,2.46-1.86S210.92,184,210.92,185Z" transform="translate(-95.01 -31.89)"/><path class="cls-18" d="M210,185.17a1.55,1.55,0,1,1-1.54-1.55A1.54,1.54,0,0,1,210,185.17Z" transform="translate(-95.01 -31.89)"/><path class="cls-15" d="M208.46,183.9a3.47,3.47,0,0,1,2.48,1,2.58,2.58,0,0,0-5,0A3.51,3.51,0,0,1,208.46,183.9Z" transform="translate(-95.01 -31.89)"/><path class="cls-17" d="M209.68,184.64a.61.61,0,0,1-.61.61.62.62,0,0,1-.61-.61.61.61,0,0,1,.61-.61A.61.61,0,0,1,209.68,184.64Z" transform="translate(-95.01 -31.89)"/><path class="cls-17" d="M209.11,185.37a.38.38,0,1,1-.38-.38A.38.38,0,0,1,209.11,185.37Z" transform="translate(-95.01 -31.89)"/><path class="cls-15" d="M194.16,179.71a6.64,6.64,0,0,1,5.14.19c.89.64,1.65-3.61.51-3.68s-4.69.91-5.2,1.59C193.65,179.08,194.16,179.71,194.16,179.71Z" transform="translate(-95.01 -31.89)"/><path class="cls-15" d="M211.52,176.78a6.68,6.68,0,0,0-5.56-.94c-1.05.31-1-2.26.06-2.79,1.78-.92,4.89-.31,5.47,1.78C211.9,176.36,211.52,176.78,211.52,176.78Z" transform="translate(-95.01 -31.89)"/><path class="cls-7" d="M199.55,196.52c1.2.32,5.29.64,6.25,0S204.28,200.69,199.55,196.52Z" transform="translate(-95.01 -31.89)"/><path class="cls-19" d="M189.28,202.26c5.93,2.33,22.86,6,30.63-1.09,1.45,2.81,2.17,4,2.17,4s-6.34,11.86-13,13.71c-3.61-1.45-6-1.21-8.58-.08-3.85-1.53-13.79-7.14-15-10.58A49.42,49.42,0,0,0,189.28,202.26Z" transform="translate(-95.01 -31.89)"/><path class="cls-20" d="M214.28,215.64a10.28,10.28,0,0,0-7.87-3.31c-4.21,0-7.76,2.13-8.95,5,1.19.61,2.25,1.11,3,1.43,2.57-1.13,5-1.37,8.58.08A13.31,13.31,0,0,0,214.28,215.64Z" transform="translate(-95.01 -31.89)"/><path class="cls-17" d="M189.28,202.26c5.93,2.33,22.86,6,30.63-1.09,1.45,2.81,2.17,4,2.17,4s-14.05,14.53-35.36,1.4C188,204.67,189.28,202.26,189.28,202.26Z" transform="translate(-95.01 -31.89)"/><path class="cls-21" d="M219.91,201.17c-7.77,7.06-24.7,3.42-30.63,1.09,0,0-1.3,2.41-2.56,4.32a39.08,39.08,0,0,0,8.34,3.94c-2.11-.86-4.65-2.4-4.18-4.12.34-1.24,2.14-1.18,3.08-1,3.53.77,7.1,1.83,10.75,1.85a29.5,29.5,0,0,0,11.89-2.58c1-.44,2.12-1,2.9.07.63.82-.24,2.18-1.39,3.42a21.66,21.66,0,0,0,4-3S221.36,204,219.91,201.17Z" transform="translate(-95.01 -31.89)"/><path class="cls-7" d="M209.06,219.37l-.14-.06a11.9,11.9,0,0,0-4.38-1,9.25,9.25,0,0,0-3.84.89l-.18.07-.18-.07c-3.86-1.53-14-7.22-15.25-10.85l-.09-.25.17-.2a47.63,47.63,0,0,0,3.7-5.88l.2-.36.37.15a51.38,51.38,0,0,0,16.71,3c6,0,10.52-1.35,13.45-4l.45-.4.27.53c1.42,2.76,2.14,4,2.15,4l.13.23-.12.23c-.26.49-6.5,12-13.27,13.93Zm-4.52-2a12.51,12.51,0,0,1,4.57,1c5.85-1.75,11.54-11.6,12.44-13.21-.25-.43-.84-1.48-1.78-3.29-3.1,2.56-7.68,3.86-13.62,3.86a52.73,52.73,0,0,1-16.66-2.92,48.66,48.66,0,0,1-3.44,5.47c1.47,3.21,10.51,8.39,14.46,10A10.15,10.15,0,0,1,204.54,217.42Z" transform="translate(-95.01 -31.89)"/><path class="cls-7" d="M184.32,209.68a.46.46,0,0,1-.38-.2.47.47,0,0,1,.13-.64c1.64-1.09,4-5.37,5.83-8.8.63-1.17,1.22-2.26,1.74-3.15a.47.47,0,0,1,.63-.17.46.46,0,0,1,.17.63c-.52.89-1.11,2-1.74,3.13-2,3.7-4.29,7.91-6.12,9.13A.48.48,0,0,1,184.32,209.68Z" transform="translate(-95.01 -31.89)"/><path class="cls-9" d="M229.66,211.29c-.37-1.08-1.72-3.76-3.39-7-2.3,9.61-15.62,22.46-25.71,21.95a14.91,14.91,0,0,0,4.41,1.09C210.5,227.29,230.68,214.28,229.66,211.29Z" transform="translate(-95.01 -31.89)"/><path class="cls-7" d="M223,206.9a.45.45,0,0,1-.34-.15c-1.78-1.94-4.14-8.11-4.24-8.38a.46.46,0,0,1,.86-.32c0,.06,2.4,6.27,4.06,8.08a.46.46,0,0,1-.34.77Z" transform="translate(-95.01 -31.89)"/><path class="cls-11" d="M204,170.36c-2.41-.41-9.7-2-9,2.41s5.38,2.74,6.58,1.42S206.4,170.76,204,170.36Z" transform="translate(-95.01 -31.89)"/><path class="cls-11" d="M202.4,190.64,201,194s-2.52-.51-2,1,3.4,1.1,3.95.33S204.15,188,202.4,190.64Z" transform="translate(-95.01 -31.89)"/><path class="cls-11" d="M190.5,188.11c1.22-1.17,4.82,1.9,8.68.68,1.44-.46.07,7.16-6.63,5.48-2.31-.57-9.75,14.78-12.11,13.1S188.74,189.78,190.5,188.11Z" transform="translate(-95.01 -31.89)"/><path class="cls-11" d="M204.17,220.22c.09.42-.57.91-1.46,1.08s-1.68,0-1.76-.45.57-.9,1.46-1.08S204.09,219.8,204.17,220.22Z" transform="translate(-95.01 -31.89)"/><path class="cls-20" d="M192.33,400.55c1.34,0-.33-5.27-.33-6.45,0-.54-1.6.26-3.14.35s-3-.55-3-.09c-7.33.84-10.18,6.19-6.87,6.19Z" transform="translate(-95.01 -31.89)"/><path class="cls-22" d="M181.92,398c.81-.16,2.6-.49,2.82-1.48s-1.22-1.35-2.39-1.33a9.6,9.6,0,0,0-3.79,2.46A4.86,4.86,0,0,0,181.92,398Z" transform="translate(-95.01 -31.89)"/><path class="cls-19" d="M192,394.1c0-.5-1.35.13-2.77.31-.87,2.34-2.48,4.49-5,5.08-1.76.4-4.73,1-6.53,0,0,.63.41,1.07,1.35,1.07h13.29C193.67,400.55,192,395.28,192,394.1Z" transform="translate(-95.01 -31.89)"/><path class="cls-20" d="M213.46,400.55c-1.33,0,.33-5.27.33-6.45,0-.54,1.61.26,3.14.35s3-.55,3-.09c7.32.84,10.17,6.19,6.86,6.19Z" transform="translate(-95.01 -31.89)"/><path class="cls-22" d="M223.88,398c-.82-.16-2.61-.49-2.82-1.48s1.21-1.35,2.39-1.33a9.55,9.55,0,0,1,3.78,2.46A4.84,4.84,0,0,1,223.88,398Z" transform="translate(-95.01 -31.89)"/><path class="cls-19" d="M213.79,394.1c0-.5,1.36.13,2.77.31.87,2.34,2.48,4.49,5,5.08,1.75.4,4.72,1,6.52,0,0,.63-.41,1.07-1.35,1.07H213.46C212.13,400.55,213.79,395.28,213.79,394.1Z" transform="translate(-95.01 -31.89)"/><path d="M208,115.66a.93.93,0,0,1-.61-.23c-.4-.35-9.49-8.42-10.72-19.17a45.27,45.27,0,0,1-8.85.92c-12.05,0-22.19-5.71-27.82-15.65-4.41-7.8-5.13-16.79-1.78-22.38,11.28-18.8,53-27.26,79-27.26,8.21,0,27.37.9,28.06,9.29,1.39,17-2.53,30.7-11.65,40.59-14.86,16.12-38.9,17.38-45.92,17.38h-.49l1.7,15.3a.94.94,0,0,1-.88,1.21ZM197.53,94.22a.94.94,0,0,1,.55.19.9.9,0,0,1,.36.67c.5,7.64,5.6,14.14,8.39,17.16l-1.54-13.93a.89.89,0,0,1,.24-.73.9.9,0,0,1,.71-.29s.54,0,1.48,0h0c6.83,0,30.21-1.21,44.57-16.79,8.76-9.5,12.51-22.68,11.17-39.19-.38-4.62-10.67-7.6-26.23-7.6-29.61,0-67.62,10.08-77.39,26.37-3,5-2.24,13.4,1.8,20.53,5.29,9.35,14.85,14.71,26.22,14.71a44.28,44.28,0,0,0,9.47-1.09A.64.64,0,0,1,197.53,94.22Z" transform="translate(-95.01 -31.89)"/><path d="M197.55,79.76c-.71,0-1.06-.3-1.06-.89V74.39a5.1,5.1,0,0,0-1.76-.57,18,18,0,0,0-2.25-.3,5.57,5.57,0,0,0-.58,1.74c-.15.76-.31,1.53-.47,2.3a6.22,6.22,0,0,1-.65,1.83c-.9,0-1.4-.23-1.51-.69q.47-.66,1.53-6.86t1.73-9.7A51.17,51.17,0,0,1,194,56.26c.53-1.59,1-2.38,1.51-2.38a1.77,1.77,0,0,1,1.11.3c0,.82.23,3,.67,6.63s.68,5.93.68,7,.12,2.82.36,5.27.36,4.3.36,5.53A1,1,0,0,1,197.55,79.76ZM196.1,68.54q-.3-3-.54-5.81c-.17-1.84-.25-2.95-.25-3.34a6.41,6.41,0,0,1,0-.66q-.54.56-1.55,6.16c-.68,3.74-1,6.1-1.09,7.1a9.39,9.39,0,0,0,2.4.39,5.94,5.94,0,0,0,1.36-.11C196.42,71.82,196.3,70.57,196.1,68.54Z" transform="translate(-95.01 -31.89)"/><path d="M203.57,78.2l-.08.22a1.88,1.88,0,0,1,.06.53.77.77,0,0,1-.31.59,1.28,1.28,0,0,1-.84.27c-.66,0-1-.73-1-2.2q0-3.27-.35-12.37t-.69-9.63c0-1.19.82-1.82,2.43-1.9l1,0a1.77,1.77,0,0,1,1,.24,1.07,1.07,0,0,1,.36,1q0,.72-1,.72l-.84,0c-.63,0-.95.13-.95.39,0,1.06.08,2.62.25,4.67s.26,3.58.27,4.56c.14,0,.34-.07.58-.13a5.58,5.58,0,0,1,1.3-.24.85.85,0,0,1,.69.33,1.08,1.08,0,0,1,.28.73c0,.75-1,1.12-2.85,1.12,0,1.25.11,3.11.32,5.59S203.57,77,203.57,78.2Z" transform="translate(-95.01 -31.89)"/><path d="M211.66,59.82l-.07,4.43.31,7.91.28,6.17q0,1.68-1,1.68a.89.89,0,0,1-.84-.53,2.65,2.65,0,0,1-.27-1.2l.27-5.48c0-1.19-.08-3-.23-5.36s-.24-4.17-.24-5.35l.05-3a9.71,9.71,0,0,0-.32-3.2l-1.86.18a1.28,1.28,0,0,1-.78-.26.8.8,0,0,1-.34-.67c0-.28.27-.51.82-.7a9.15,9.15,0,0,1,2-.43,31.09,31.09,0,0,1,3.48-.24,1.15,1.15,0,0,1,.76.28.84.84,0,0,1,.35.69.83.83,0,0,1-.31.67,1.13,1.13,0,0,1-.74.24l-1.22-.07-.35,0A37.49,37.49,0,0,1,211.66,59.82Z" transform="translate(-95.01 -31.89)"/><path d="M219.45,67.19l-.86,0a.84.84,0,0,0-.7.25V78l1.91-.11c1.31,0,2,.31,2,.91v.12a1.6,1.6,0,0,1-.81.72,3.35,3.35,0,0,1-1,.29c-.29,0-.66,0-1.12,0h-1.08c-.85,0-1.37-.17-1.57-.5a1.28,1.28,0,0,1-.14-.63v-20a10.31,10.31,0,0,0-.23-1.75,9.45,9.45,0,0,1-.24-1.76v-.12a6.75,6.75,0,0,1,.86-1.2l2.55-.31a2.12,2.12,0,0,1,1.05.31.94.94,0,0,1,.53.82q0,1-1.56,1l-1,0a1.79,1.79,0,0,0-.37,0l.27,5.67q0,.69-.09,2c-.06.87-.08,1.51-.08,1.92l.5-.12a4.93,4.93,0,0,1,1.1-.19,1,1,0,0,1,.71.29.93.93,0,0,1,.31.69,1.12,1.12,0,0,1-.26.72A.78.78,0,0,1,219.45,67.19Z" transform="translate(-95.01 -31.89)"/><path d="M223.51,78.77l.14-20.16V54.38a.79.79,0,0,1,.16-.57,1.44,1.44,0,0,1,.88-.17,3.39,3.39,0,0,1,1.45.35,3.66,3.66,0,0,1,1.23.91,6.39,6.39,0,0,1,.84,1.35,7.13,7.13,0,0,1,.67,3.1,10.78,10.78,0,0,1-.84,3.84c-.06.16-.2.49-.4,1s-.32.8-.35.89a23.87,23.87,0,0,0,1.29,6.63c.29.92.71,2.18,1.24,3.77s.88,2.61,1,3v.09q0,1.16-.27,1.35a1,1,0,0,1-.57.19c-.43,0-.84-.31-1.24-.92v-.12a43.07,43.07,0,0,0-2.15-9.45c-.6-1.92-1-3.35-1.26-4.28V78.9a1.52,1.52,0,0,1-.18.81.76.76,0,0,1-.68.29.92.92,0,0,1-.72-.28,1,1,0,0,1-.25-.68Zm1.9-23.55-.19,7c0,.7,0,1.23,0,1.57a10.39,10.39,0,0,0,1.16-1.32l.53-3A2.26,2.26,0,0,0,227,59a7.65,7.65,0,0,0-.33-2C226.35,55.91,225.93,55.32,225.41,55.22Z" transform="translate(-95.01 -31.89)"/></svg>