<svg id="layer" xmlns="http://www.w3.org/2000/svg" viewBox="0 0 127.94 377.88"><defs><style>.cls-1{fill:#c6c6c6;}.cls-2{fill:#8e8e8e;}.cls-3{fill:#5d5d5d;}.cls-4{fill:#eb3d00;}.cls-5{fill:#c12d00;}.cls-6{fill:#7c2615;}.cls-7{fill:#a03d2d;}.cls-8{fill:#681b0f;}.cls-9{fill:#ff5b29;}.cls-10{fill:#ef9659;}.cls-11{fill:#fcaa70;}.cls-12{fill:#e28444;}.cls-13{fill:#d87939;}.cls-14{fill:#ffc28a;}.cls-15{fill:#b76b37;}.cls-16{fill:#664330;}.cls-17{fill:#512f20;}.cls-18{fill:#3d2014;}.cls-19{fill:#8e5b44;}.cls-20{fill:#fff;}.cls-21{fill:#050100;}.cls-22{fill:#d8d8d8;}</style></defs><ellipse class="cls-1" cx="66.64" cy="370.25" rx="61.3" ry="7.63"/><path class="cls-2" d="M215.82,384.94c0,2.83-22.95,5.13-51.27,5.13s-51.28-2.3-51.28-5.13,23-5.14,51.28-5.14S215.82,382.15,215.82,384.94Z" transform="translate(-102.33 -15.9)"/><path class="cls-3" d="M183.71,384.35c0,1.66-11.58,3-25.85,3S132,386,132,384.35s11.58-3,25.86-3S183.71,382.68,183.71,384.35Z" transform="translate(-102.33 -15.9)"/><path class="cls-4" d="M195.18,301.59H116.51c0,16.89,7.89,29.36,13.39,38,2.94,5.34,1.57,6.79,1.54,9.29-.11,8.52,7.6,23.77,9.57,29.42,3.63.38,5.28-.38,5.28-.38a89,89,0,0,0,3.31-11.47,57.9,57.9,0,0,0-.34-20.67c1.5-3.08,3.38-9.27,4.85-17a3.67,3.67,0,0,0,1.68.45h.09a3.67,3.67,0,0,0,1.68-.45c1.47,7.68,3.35,13.87,4.85,17a57.9,57.9,0,0,0-.34,20.67,89,89,0,0,0,3.31,11.47s1.65.76,5.28.38c2-5.65,9.68-20.9,9.57-29.42,0-2.5-1.4-3.95,1.54-9.29C187.27,331,195.18,318.48,195.18,301.59Z" transform="translate(-102.33 -15.9)"/><path class="cls-5" d="M195.18,301.59H116.51c21.58,26.56,50.67,19.82,55.81,19.08,7.07-1,11.21-.74,7.38,9.3a127,127,0,0,0-4.1,12.12c-1,4.13.33,8.63-2.18,15.56s-4.59,13.67-7,9.29c-3.61-6.5-3.26-13.37-3.07-16.46a12,12,0,0,1,.58-4.11c.39-.75,1.51-1,1-2.1a19,19,0,0,1-1-4.42,19.75,19.75,0,0,1-.05-5.21c.35-4-.53-7.15-.13-11.1-4.25,1.68-6.9,3.56-11.5,3.15-4.25-.38-7.48-3.16-11.24-5,4,5.8,7.57,17.18.23,23.09,7.13,5.47,6.73,14.06.32,20.8-2.88,3-8-6.12-8-6.12,2.4,7.33,6.14,15.13,7.43,18.82,3.63.38,5.28-.38,5.28-.38a89,89,0,0,0,3.31-11.47,57.9,57.9,0,0,0-.34-20.67c1.5-3.08,3.38-9.27,4.85-16.95a3.67,3.67,0,0,0,1.68.45h.09a3.67,3.67,0,0,0,1.68-.45c1.47,7.68,3.35,13.87,4.85,16.95a57.9,57.9,0,0,0-.34,20.67,89,89,0,0,0,3.31,11.47s1.65.76,5.28.38c2-5.65,9.68-20.9,9.57-29.42,0-2.5-1.4-3.95,1.54-9.29C187.27,331,195.18,318.48,195.18,301.59Z" transform="translate(-102.33 -15.9)"/><path class="cls-6" d="M146.57,384.51c1.17,0-.29-5.33-.29-6.52,0-.55-1.4.26-2.74.35s-2.58-.56-2.58-.09c-6.38.84-8.87,6.26-6,6.26Z" transform="translate(-102.33 -15.9)"/><path class="cls-7" d="M137.48,382c.71-.16,2.28-.49,2.46-1.49.22-1.16-1.06-1.37-2.08-1.35a8.6,8.6,0,0,0-3.3,2.48A3.61,3.61,0,0,0,137.48,382Z" transform="translate(-102.33 -15.9)"/><path class="cls-8" d="M146.28,378c0-.5-1.18.13-2.41.31-.76,2.37-2.17,4.54-4.38,5.13-1.53.41-4.12,1-5.69,0,0,.65.36,1.09,1.18,1.09h11.59C147.74,384.51,146.28,379.15,146.28,378Z" transform="translate(-102.33 -15.9)"/><path class="cls-6" d="M165,384.51c-1.17,0,.29-5.33.29-6.52,0-.55,1.4.26,2.74.35s2.57-.56,2.57-.09c6.39.84,8.88,6.26,6,6.26Z" transform="translate(-102.33 -15.9)"/><path class="cls-7" d="M174.09,382c-.7-.16-2.27-.49-2.46-1.49-.21-1.16,1.07-1.37,2.09-1.35a8.6,8.6,0,0,1,3.3,2.48A3.63,3.63,0,0,1,174.09,382Z" transform="translate(-102.33 -15.9)"/><path class="cls-8" d="M165.3,378c0-.5,1.18.13,2.41.31.76,2.37,2.17,4.54,4.38,5.13,1.53.41,4.12,1,5.69,0,0,.65-.36,1.09-1.18,1.09H165C163.84,384.51,165.3,379.15,165.3,378Z" transform="translate(-102.33 -15.9)"/><path class="cls-9" d="M131.41,322.05c3.29,6.26,4.31,12.5,2.27,13.93s-6.34-2.48-9.63-8.75-4.3-12.5-2.27-13.93S128.18,315.78,131.41,322.05Z" transform="translate(-102.33 -15.9)"/><path class="cls-9" d="M168.11,355.72c-.27,3.16-1.31,5.62-2.33,5.51s-1.64-2.77-1.38-5.92,1.31-5.62,2.33-5.51S168.37,352.57,168.11,355.72Z" transform="translate(-102.33 -15.9)"/><path class="cls-9" d="M172,331c-.83,4.64-2.73,8.11-4.24,7.75s-2-4.42-1.21-9.07,2.73-8.11,4.24-7.75S172.86,326.31,172,331Z" transform="translate(-102.33 -15.9)"/><ellipse class="cls-9" cx="135.76" cy="354.54" rx="1.91" ry="5.75" transform="translate(-172.52 19.71) rotate(-11.9)"/><path class="cls-10" d="M206.42,312.87l-8.16.89c-1.66,5-4.35,8.92-.31,11-.17,3.56,1.74,4.63,3.54,4.39s5.32-1.27,6.52-3.83A13,13,0,0,0,206.42,312.87Z" transform="translate(-102.33 -15.9)"/><path class="cls-11" d="M178.46,211.84c7.25,2.77,20.44,15,21.81,21.57,2,9.66,9.21,32.51,9.61,40.87s-3.46,38.59-3.46,38.59c-.66.37-8.16.89-8.16.89l-11.35-38.54Z" transform="translate(-102.33 -15.9)"/><path class="cls-10" d="M208.68,274.75c-.39-8.08-6.37-30.13-8.63-40.3-.16-.7-1.38,1.67-2.51,1.76-2.15.16-3.84-1.05-5.43-2.49a53.1,53.1,0,0,0-10.45,2.13l5.25,39.37,11.35,38.54,7.59-.57C206.25,313.65,209.08,283.15,208.68,274.75Z" transform="translate(-102.33 -15.9)"/><path class="cls-12" d="M197.86,261.74c.94-9.29-2.54-21.36-3.61-24.53-.9-2.69-1.74-5.42-3.45-7.47a.13.13,0,0,1-.1-.05c-3-2.55-6.38-3.91-9.71-5.64-.32-.17-.64-.34-1-.5l6.89,51.67,11.35,38.54s5.35,1.68,8.16-.89C197.24,311.63,207.18,289.61,197.86,261.74Z" transform="translate(-102.33 -15.9)"/><path class="cls-12" d="M203.85,324.64a4.44,4.44,0,0,1-3.61-1.06,8.31,8.31,0,0,1-2-3.47c-.07,1.64-.11,2.47-.26,3.85-.17,3.56,1.81,4.91,3.61,4.68s5.18-1.19,6.38-3.74a8.91,8.91,0,0,0,.88-3.66A6.9,6.9,0,0,1,203.85,324.64Z" transform="translate(-102.33 -15.9)"/><path class="cls-10" d="M105.82,312.87l8.16.89c1.66,5,4.35,8.92.31,11,.17,3.56-1.74,4.63-3.54,4.39s-5.32-1.27-6.52-3.83A13,13,0,0,1,105.82,312.87Z" transform="translate(-102.33 -15.9)"/><path class="cls-11" d="M110.8,321.15c-.34-5-5.54-7.49-5.76-7.12a9.44,9.44,0,0,0-.88,6.73C105.67,324.78,111,324.56,110.8,321.15Z" transform="translate(-102.33 -15.9)"/><path class="cls-11" d="M133.78,211.84c-7.25,2.77-20.44,15-21.81,21.57-2,9.66-9.21,32.51-9.61,40.87s3.46,38.59,3.46,38.59c.66.37,8.16.89,8.16.89l11.35-38.54Z" transform="translate(-102.33 -15.9)"/><path class="cls-10" d="M110.24,275.21c5.08-8.21-.93-20.9,8.3-40,3.55.2,8.59-.24,12,.69l-5.25,39.37L114,313.76l-7.59-.57C111.71,312.39,112.26,290.87,110.24,275.21Z" transform="translate(-102.33 -15.9)"/><path class="cls-12" d="M118.26,266.39c-7.22-5.27-1.34-26-.27-29.18.9-2.69,1.74-5.42,3.45-7.47a.13.13,0,0,0,.1-.05c2.95-2.55,6.38-3.91,9.71-5.64.32-.17.64-.34,1-.5l-6.89,51.67L114,313.76s-5.35,1.68-8.16-.89C120.74,316.55,104.23,299.4,118.26,266.39Z" transform="translate(-102.33 -15.9)"/><path class="cls-12" d="M108.39,324.64a4.44,4.44,0,0,0,3.61-1.06,8.41,8.41,0,0,0,2-3.47c.07,1.64.11,2.47.26,3.85.17,3.56-1.81,4.91-3.61,4.68s-5.18-1.19-6.38-3.74a8.91,8.91,0,0,1-.88-3.66A6.91,6.91,0,0,0,108.39,324.64Z" transform="translate(-102.33 -15.9)"/><path class="cls-11" d="M193.61,265.05c-2.56-4.35,1.54-21.52-1-34s-24.43-30.08-36.7-30.14h-.15c-12.29.06-34.13,17.78-36.68,30.18s1.54,29.61-1,34c-1.23,2.09-5.55,10.31-3.41,16.82a15.71,15.71,0,0,0-1.64,7.43c.1,4.86,1,9.2,3.5,11.63,11.85,11.47,50.07,24.58,78.65,0C203,294.2,196.18,269.41,193.61,265.05Z" transform="translate(-102.33 -15.9)"/><path class="cls-10" d="M175.9,210c-1-.86-2-1.68-3-2.45l-15.74,8s1.57,1.77,9.4.59C172.18,215.36,177.73,212.15,175.9,210Z" transform="translate(-102.33 -15.9)"/><path class="cls-10" d="M174,203.65l-36.13-.5,1.42,4.14a23.16,23.16,0,0,0,17.8,8.33c9.22,0,15.74-8,15.74-8Z" transform="translate(-102.33 -15.9)"/><path class="cls-13" d="M174,203.65l-36.13-.5s1,2.86,14.28,8.58c.77.33,4,1.68,4.94,3.89,9.22,0,15.74-8,15.74-8Z" transform="translate(-102.33 -15.9)"/><path class="cls-10" d="M118.56,263.71c24.51,0,32.82-6.38,32.82-6.38-23.65,4.4-34,5.69-32.3-26.24C116.52,243.53,114.18,263.6,118.56,263.71Z" transform="translate(-102.33 -15.9)"/><path class="cls-10" d="M193.48,262.52c2.13-2.7,4.36-9.1-.89-31.43,0,11.2,0,31.65-33.53,26,0,0,7.09,7.29,23.85,10.42,5.22,1,8.34,18.11-10.29,26.7-19.5,9-57.73,1.56-59.58-3.78.18,4.38,1.16,8.88,3.47,11.12,11.85,11.46,50.07,24.57,78.65,0,4.17-3.59,5.37-14.77,2.83-22.07A27.91,27.91,0,0,0,193.48,262.52Z" transform="translate(-102.33 -15.9)"/><path class="cls-13" d="M173.82,297.92c0,.51-12.1,2.89-17.63,2.89s-17.63-2.38-17.63-2.89c0,0,12.1,1.28,17.63,1.28S173.82,297.92,173.82,297.92Z" transform="translate(-102.33 -15.9)"/><path class="cls-13" d="M121,262.23a5.72,5.72,0,0,1-4.62-2.56c.32,2.47,1,4,2.21,4,24.51,0,32.82-6.38,32.82-6.38l-.44.08C146.76,259.3,137.59,262.23,121,262.23Z" transform="translate(-102.33 -15.9)"/><path class="cls-13" d="M189.75,262.23a6.87,6.87,0,0,0,5.22-2.6c-.32,2.47-1.61,4-2.81,4.08-24.51,0-32.81-6.38-32.81-6.38l.44.08C164,259.3,173.18,262.23,189.75,262.23Z" transform="translate(-102.33 -15.9)"/><path class="cls-13" d="M121.66,305.57c17.11,11.72,52.38,16.62,73.5-4a10.57,10.57,0,0,0,2.77-4.57C179.36,320.72,130.59,310.36,121.66,305.57Z" transform="translate(-102.33 -15.9)"/><path class="cls-14" d="M153.52,222c-9.07-3.75-15.76-8-24.31.31s-7,22.91,8.55,22.3,15.8-5.11,20.57-3.1c11.75,4.95,23.77-1.55,17.89-10.84S166.37,227.26,153.52,222Z" transform="translate(-102.33 -15.9)"/><path class="cls-15" d="M128.64,260.35c-.08.75-1.36,1.17-2.86,1s-2.65-1-2.57-1.75,1.36-1.17,2.86-1S128.72,259.6,128.64,260.35Z" transform="translate(-102.33 -15.9)"/><path class="cls-15" d="M183.18,260.35c.08.75,1.36,1.17,2.86,1s2.65-1,2.57-1.75-1.36-1.17-2.86-1S183.06,259.6,183.18,260.35Z" transform="translate(-102.33 -15.9)"/><path class="cls-14" d="M169.41,266.62c-16.43-4.41-46.21-4.72-51.29,4.56s.94,11.31,4.41,10.38c-6,3.09-7.52,6.42-4.27,9.6,4.08,4,35.72,8,46.34.07,6.68-5,6.38-8.24.8-10.14-5-1.7-37.8-.62-39.66.16,10-2.63,32.24-4.41,41.72-3.67C181.63,278.69,180.36,269.56,169.41,266.62Z" transform="translate(-102.33 -15.9)"/><path class="cls-11" d="M143.08,169.82s-4.06-6.24-5.85-3.52,3.1,10.71,3.65,10S143.08,169.82,143.08,169.82Z" transform="translate(-102.33 -15.9)"/><path class="cls-10" d="M140.8,170.24c-.79-2-3.44-5.05-3.55-1.54.38,3.14,2.68,6.73,2.93,6.09s-.8-1.48-.74-2.67S141.18,171.26,140.8,170.24Z" transform="translate(-102.33 -15.9)"/><path class="cls-12" d="M138.58,169.65c-.42,1.55,1.44,4.3,1.17,3.74a2.54,2.54,0,0,1-.31-1.27c0-.69.66-.86,1.07-1.11S139,168,138.58,169.65Z" transform="translate(-102.33 -15.9)"/><path class="cls-10" d="M168.59,169.82s4.07-6.24,5.86-3.52-3.1,10.71-3.65,10S168.59,169.82,168.59,169.82Z" transform="translate(-102.33 -15.9)"/><path class="cls-12" d="M170.87,170.24c.79-2,3.45-5.05,3.56-1.54-.38,3.14-2.68,6.73-2.94,6.09s.8-1.48.75-2.67S170.48,171.26,170.87,170.24Z" transform="translate(-102.33 -15.9)"/><path class="cls-15" d="M173.09,169.65c.42,1.55-1.44,4.3-1.17,3.74a2.66,2.66,0,0,0,.32-1.27c0-.69-.66-.86-1.07-1.11S172.65,168,173.09,169.65Z" transform="translate(-102.33 -15.9)"/><path class="cls-11" d="M143.91,139.45c-5.47,7.61-1,21.1-1,26.29s-10.34,9.73-10.34,28.37c0,2.47,6.65,15.18,25,15.18,15.92,0,21.54-11.53,21.54-16.18,0-12.3-10.69-23.37-10.69-27s4.77-18.35.62-25.41a15,15,0,0,0-25.13-1.25Z" transform="translate(-102.33 -15.9)"/><path class="cls-10" d="M179.18,193.15c0-12.77-10.69-23.37-10.69-27s6.86-19.77,2.72-26.82c-5.86-10-24.43-7.66-30.46.73-5.47,7.61,2.24,20.5,2.24,25.69a12,12,0,0,1-.81,3.88c-1.31,3.47,2.92.11,4.06-5a67.76,67.76,0,0,0,1.33-15.17c-.18-2.57,2.58,2,13.49.39,1.07-.16,2.26,6.39,2.26,6.39,0,.53.16,2-.16,1.64-1.48-1.75-5.35-4.27-5.24-1.07.05,1.51.43,8.37.62,9.17.23,2.08,2.18,2.5,4.29.56,1.37,0,2-3.37,2.13-2.82.67,2.66.79,6,2.34,9.55,8.66,5.17,8.49,16.33,4.36,19.86-5.35,4.55-15.54-12.71-13.29-14.95A16.83,16.83,0,0,0,156.85,168c.94,4.8.61,10-.4,10.51-1.34.71-3.54-.37-3.54-.37.28,3.09,6.48,8.69,3.85,9.18-4.34.8-6.81-.11-7.89-4.39.13,11.54-3.82,15.14-6.39,15.23-3.93.13-9.66-5.76-9.5-9.6a21.31,21.31,0,0,0-.33,5.52c.27,3,5.15,15.69,25,15.69C173,209.8,179.18,198.65,179.18,193.15ZM156,200.28a5,5,0,0,0-.16,2.75c-4.81,0-3.79-3.08-3.21-3.49,3.61-2.55,7.95-.07,7.92,1.63-.08,1.88-3.28,3.13-4.59-.93Z" transform="translate(-102.33 -15.9)"/><path class="cls-12" d="M146,153.8c1-1.93.77-6.11.1-7.49,2.31,1.47,13.2,2.89,17.33,1.29-.68,3.07,5.6,11.56,6.54,12.15,1.74-6.42,4.09-15.58,1.25-20.43-5.86-10-24.43-7.66-30.46.73C135.24,147.66,144.5,156,146,153.8Z" transform="translate(-102.33 -15.9)"/><path class="cls-10" d="M153.58,158.54l-5.4,2.52c-.57,1,1.64,1.27.62,5.34,1.58.16,4,1.85,4.33,0S154,159.74,153.58,158.54Z" transform="translate(-102.33 -15.9)"/><path class="cls-16" d="M142.18,169.62s-1.17-6.84-3.28-10.86-7.93-13.69-.26-18.14c-1.11-3.49-4.84-5.94,3.92-12.81s16.45-7.73,16.13-10.76c1.88,1.47,2,4.51,1.49,5.24,2.07-1.18,13.93-1.42,13.56-4,.86,1.58.31,8.55-2.77,10.07a7.22,7.22,0,0,1,5.26,7.13c-.7-.14-1.29,1.63-1.16,2.51,3.91,14.6-6.47,18.29-5.94,30.93,0,0-4.32-7.55-4.12-13.31s2.89-12.79-1.24-10.28-16.32,1.06-22.58-2.69a33.9,33.9,0,0,0,4.77,5.84S146.79,165.42,142.18,169.62Z" transform="translate(-102.33 -15.9)"/><path class="cls-17" d="M142.18,169.62s-1.17-6.84-3.28-10.86a58.82,58.82,0,0,1-2.76-5.64c8.94,13.25,10.1-4.48,1.78-12,.22-.16.47-.31.72-.46-.57-1.79-1.82-3.3-1.74-5.28,5.67,6.29,19,1.51,22.84-4,.45,1.21-.48,4.35-.48,4.35,1.76-.71,9.67-1.66,13.21,5.72.57-2.55,0-6.39-2.43-7.79,3.51.05,6,.89,6.19,1.84-.7-.14-1.29,1.63-1.16,2.51,3.91,14.6-6.47,18.29-5.94,30.93,0,0-4.32-7.55-4.12-13.31s2.89-12.79-1.24-10.28-13.57,2.42-19.83-1.33a8.19,8.19,0,0,0,2,4.48S146.79,165.42,142.18,169.62Z" transform="translate(-102.33 -15.9)"/><path class="cls-18" d="M139.67,140.23c2.65,2.14,19.53,9,29.88.28A46.94,46.94,0,0,1,139.67,140.23Z" transform="translate(-102.33 -15.9)"/><path class="cls-18" d="M145.06,141.81c2.1,1.2,14.84,4,21.44-3.57A34.44,34.44,0,0,1,145.06,141.81Z" transform="translate(-102.33 -15.9)"/><path class="cls-18" d="M165,155.57c-.2,5.76,4.12,13.31,4.12,13.31-.46-10.75,7-15,6.81-25C174.45,151.52,169.07,160.26,165,155.57Z" transform="translate(-102.33 -15.9)"/><path class="cls-19" d="M144.18,129c2.23-2.25,13.11-4.28,14-7.89a5.88,5.88,0,0,1,.48,3.93c2.19-.6,10.79-1.76,11.83-3C164.51,129.8,154.8,125.15,144.18,129Z" transform="translate(-102.33 -15.9)"/><ellipse class="cls-20" cx="48.65" cy="150.63" rx="2.14" ry="1.88"/><path class="cls-21" d="M152.33,166.69a1.36,1.36,0,1,1-1.34-1.56A1.46,1.46,0,0,1,152.33,166.69Z" transform="translate(-102.33 -15.9)"/><path class="cls-18" d="M151,165.4a2.85,2.85,0,0,1,2.16,1,2.18,2.18,0,0,0-4.33,0A2.86,2.86,0,0,1,151,165.4Z" transform="translate(-102.33 -15.9)"/><path class="cls-20" d="M152.06,166.15a.54.54,0,0,1-.61.46.54.54,0,0,1,.08-1.08A.59.59,0,0,1,152.06,166.15Z" transform="translate(-102.33 -15.9)"/><ellipse class="cls-20" cx="48.89" cy="150.99" rx="0.33" ry="0.38"/><path class="cls-20" d="M162.79,166.53a2.16,2.16,0,1,1-2.42-1.86l.27,0a2,2,0,0,1,2.15,1.84Z" transform="translate(-102.33 -15.9)"/><path class="cls-21" d="M162,166.69a1.36,1.36,0,1,1-2.69-.4,1.37,1.37,0,0,1,1.34-1.16A1.46,1.46,0,0,1,162,166.69Z" transform="translate(-102.33 -15.9)"/><path class="cls-18" d="M160.64,165.4a2.86,2.86,0,0,1,2.17,1,2.18,2.18,0,0,0-4.33,0A2.85,2.85,0,0,1,160.64,165.4Z" transform="translate(-102.33 -15.9)"/><path class="cls-20" d="M161.71,166.15a.54.54,0,0,1-.61.46.54.54,0,0,1,.08-1.08A.59.59,0,0,1,161.71,166.15Z" transform="translate(-102.33 -15.9)"/><path class="cls-20" d="M161.18,166.89a.34.34,0,0,1-.38.28.33.33,0,0,1,0-.66A.37.37,0,0,1,161.18,166.89Z" transform="translate(-102.33 -15.9)"/><path class="cls-18" d="M148.18,161.15a5,5,0,0,1,4.48.19c.78.64,1.44-3.65.45-3.72s-4.1.92-4.54,1.61C147.73,160.53,148.18,161.15,148.18,161.15Z" transform="translate(-102.33 -15.9)"/><path class="cls-18" d="M163.32,158.21a5.22,5.22,0,0,0-4.86-1c-.91.32-.83-2.28,0-2.81,1.56-.94,4.27-.32,4.77,1.79C163.65,157.78,163.32,158.21,163.32,158.21Z" transform="translate(-102.33 -15.9)"/><path class="cls-15" d="M152.87,178.15c1,.32,4.62.65,5.46,0S157,182.39,152.87,178.15Z" transform="translate(-102.33 -15.9)"/><path class="cls-8" d="M150.58,191.3c5-8.29,12.89,1,11.29.57C154.57,190.15,148.24,195.15,150.58,191.3Z" transform="translate(-102.33 -15.9)"/><path class="cls-22" d="M150.58,191.3c3.87-6.58,9.65-1.69,9.65-1.69A54.47,54.47,0,0,0,150.58,191.3Z" transform="translate(-102.33 -15.9)"/><path class="cls-15" d="M150.56,193.26a.78.78,0,0,1-.8-.44c-.21-.46,0-1,.49-1.79,1.47-2.43,3.31-3.66,5.47-3.66,3.32,0,6.76,3.26,6.76,4.39a.58.58,0,0,1-.17.44.51.51,0,0,1-.52.13,14.3,14.3,0,0,0-3.26-.37,24.34,24.34,0,0,0-6,.91A9.42,9.42,0,0,1,150.56,193.26Zm0-.93a8.31,8.31,0,0,0,1.85-.37,25.23,25.23,0,0,1,6.16-.93,15.76,15.76,0,0,1,2.83.26c-.84-1-3.15-3-5.64-3-1.88,0-3.5,1.1-4.81,3.26a4.26,4.26,0,0,0-.43.78Z" transform="translate(-102.33 -15.9)"/><path class="cls-14" d="M156.79,151.71c-2.11-.41-8.47-2-7.84,2.44s4.69,2.77,5.74,1.44S158.85,152.15,156.79,151.71Z" transform="translate(-102.33 -15.9)"/><path class="cls-14" d="M155.36,172.22l-1.25,3.44s-2.2-.52-1.72,1,3,1.1,3.45.33S156.89,169.56,155.36,172.22Z" transform="translate(-102.33 -15.9)"/><path class="cls-14" d="M155.78,199.71c.07.43-.5.92-1.28,1.09s-1.47,0-1.54-.45.5-.92,1.28-1.09S155.71,199.28,155.78,199.71Z" transform="translate(-102.33 -15.9)"/><path class="cls-14" d="M147.37,173.65a6.85,6.85,0,0,0-9.24,2.87l-.11.22c-3.32,6.27-3.6,11.31.14,11.93,4.93.81,9.35-7,8.41-10.07C150,182,152.39,176.66,147.37,173.65Z" transform="translate(-102.33 -15.9)"/><path class="cls-14" d="M167.73,177.85c2.58,2.48,3.77,5.74,2.66,7.28s-4.09.78-6.66-1.71-3.76-5.74-2.66-7.28S165.18,175.36,167.73,177.85Z" transform="translate(-102.33 -15.9)"/><path class="cls-12" d="M176.29,181.07c5.1,18.79-15.15,32.76-37.22,23.14,3.81,3.06,9.68,5.59,18.53,5.59,16.12,0,21.58-12.05,21.58-16.65A29.77,29.77,0,0,0,176.29,181.07Z" transform="translate(-102.33 -15.9)"/><path d="M155.48,101.5a.45.45,0,0,1-.23,0,.93.93,0,0,1-.56-1c0-.16,1.76-16-4.6-18.73a36.92,36.92,0,0,1-9,1.18A27.15,27.15,0,0,1,116.9,69c-5.72-9.8-6.72-23-2.5-35.31,3.9-11.44,15.87-17.74,33.7-17.74,17,0,36.71,6.12,47.91,14.89,10,7.82,14.4,15.41,13.1,22.57-3.19,17.5-39.54,25.93-44,26.9L156.18,101A.8.8,0,0,1,155.48,101.5Zm-5.3-21.68h.24c5.38,2,6.2,10.66,6.15,16.17l7.3-17a.86.86,0,0,1,.58-.5c.4-.08,40-8.5,43.13-25.55,1.16-6.34-3-13.29-12.42-20.64-11-8.58-30.3-14.57-47-14.57-9.92,0-27.29,2.15-32.21,16.56-4,11.72-3.13,24.26,2.31,33.54A25.61,25.61,0,0,0,141.13,81,35.58,35.58,0,0,0,150,79.81Z" transform="translate(-102.33 -15.9)"/><path d="M135.18,52.8,135,38.68v-.21a3.73,3.73,0,0,1,.5-2.37.86.86,0,0,1,.63-.26,4,4,0,0,1,3.34,1.6,6.7,6.7,0,0,1,1.2,4.11,8.37,8.37,0,0,1-.72,3.27,6.45,6.45,0,0,1-1.75,2.53A7.91,7.91,0,0,1,140.79,51a13.66,13.66,0,0,1,.78,4.61A6.85,6.85,0,0,1,141,58.2a12,12,0,0,1-1.1,2.14,4.53,4.53,0,0,1-1.45,1.34,3.63,3.63,0,0,1-2,.54h-.12c-.93,0-1.4-.29-1.4-.86Zm1.85-15c-.28,0-.42.42-.42,1.25s0,2.14,0,3.92.06,3.08.06,3.88a2.24,2.24,0,0,0,1.34-1.49,18.64,18.64,0,0,0,.74-2.1c.2-.67.32-1.09.38-1.25V40.78a3.53,3.53,0,0,0-.65-2,1.84,1.84,0,0,0-1.51-1Zm2.18,21a5.48,5.48,0,0,0,.85-3,15.92,15.92,0,0,0-.25-3,9.43,9.43,0,0,0-.55-2,5.1,5.1,0,0,0-.69-1.14,2.41,2.41,0,0,0-.79-.7h-1.07c.1,3.2.14,7,.14,11.53a3.39,3.39,0,0,0,2.33-1.68Z" transform="translate(-102.33 -15.9)"/><path d="M146.61,49.2h-.74a.72.72,0,0,0-.62.25v10.7l1.67-.1c1.14,0,1.71.31,1.71.92v.12a1.46,1.46,0,0,1-.7.73,2.27,2.27,0,0,1-.88.28,8.34,8.34,0,0,1-1,0h-.87c-.74,0-1.2-.17-1.37-.51a1.34,1.34,0,0,1-.12-.63V40.8a11.84,11.84,0,0,0-.2-1.77,10.55,10.55,0,0,1-.21-1.78v-.1a6.67,6.67,0,0,1,.75-1.22l2.22-.3a1.69,1.69,0,0,1,.92.31,1,1,0,0,1,.46.82c0,.69-.45,1-1.36,1h-1.19l.24,5.74c0,.46,0,1.14-.08,2a19.12,19.12,0,0,0-.07,1.94,3.17,3.17,0,0,0,.44-.12,4.2,4.2,0,0,1,1-.18.83.83,0,0,1,.61.28,1,1,0,0,1,.27.7,1.19,1.19,0,0,1-.22.73A.63.63,0,0,1,146.61,49.2Z" transform="translate(-102.33 -15.9)"/><path d="M152.38,60.34l-.07.22a2.46,2.46,0,0,1,.06.53.82.82,0,0,1-.28.61,1,1,0,0,1-.73.27c-.58,0-.87-.74-.87-2.23q0-3.3-.3-12.51c-.2-6.14-.4-9.38-.6-9.74,0-1.2.71-1.84,2.12-1.92h.87a1.46,1.46,0,0,1,.86.24,1.17,1.17,0,0,1,.32,1c0,.49-.28.73-.84.73h-.73c-.55,0-.83.13-.83.39,0,1.07.07,2.65.22,4.72s.22,3.62.23,4.61a3.18,3.18,0,0,0,.51-.13,4.29,4.29,0,0,1,1.13-.24.73.73,0,0,1,.61.33,1.26,1.26,0,0,1,.24.74q0,1.14-2.49,1.14c0,1.25.1,3.14.29,5.65S152.38,59.07,152.38,60.34Z" transform="translate(-102.33 -15.9)"/><path d="M163.26,51.44l-.26,4.4V56a10.49,10.49,0,0,0-.19,2.09,6.93,6.93,0,0,1-.34,2.17,5.36,5.36,0,0,1-1,1.85,2,2,0,0,1-1.51.8,2.06,2.06,0,0,1-1.49-.64,5.07,5.07,0,0,1-1.12-1.66,14.39,14.39,0,0,1-.77-2.41,25.26,25.26,0,0,1-.52-2.73c-.13-.89-.23-1.83-.3-2.81-.12-1.51-.18-2.67-.17-3.51s0-1.54,0-2.14V43.69c0-.67,0-1.27,0-1.8s.07-1.11.13-1.73a14.51,14.51,0,0,1,.25-1.63,8.33,8.33,0,0,1,.39-1.38A5.14,5.14,0,0,1,157,36a2.11,2.11,0,0,1,1.68-1,2.83,2.83,0,0,1,2.76,1.68q.47.89.81,1.71a9.32,9.32,0,0,1,.54,2.32c.13,1,.24,1.79.31,2.4s.14,1.51.17,2.67c0,1.55,0,2.76,0,3.63Zm-2.65-12.72a3.83,3.83,0,0,0-.75-1.37,1.25,1.25,0,0,0-.89-.49.9.9,0,0,0-.72.36,3.08,3.08,0,0,0-.48,1c-.14.43-.25.9-.36,1.4a14.64,14.64,0,0,0-.23,1.73c-.05.65-.1,1.24-.14,1.78s0,1.09-.07,1.73v2.61a44,44,0,0,0,.31,5c.21,1.79.42,3.26.64,4.4a12.23,12.23,0,0,0,.88,2.91c.37.8.79,1.2,1.25,1.2s.74-.44,1-1.31a15.58,15.58,0,0,0,.58-3.26c.2-2.3.3-3.93.31-4.86v-2c0-.43,0-1.06-.05-1.88s-.06-1.59-.12-2.31-.14-1.51-.23-2.38a20.53,20.53,0,0,0-.37-2.33,19.24,19.24,0,0,0-.56-1.93Z" transform="translate(-102.33 -15.9)"/><path d="M165.4,60.92l.12-20.39V36.25a.86.86,0,0,1,.15-.58c.09-.11.35-.17.77-.17a2.61,2.61,0,0,1,1.25.35,3.45,3.45,0,0,1,1.08.93,7.13,7.13,0,0,1,.73,1.36,8.26,8.26,0,0,1,.59,3.14,12.76,12.76,0,0,1-.73,3.88c-.06.16-.18.49-.35,1s-.28.81-.31.9a26.78,26.78,0,0,0,1.13,6.71q.38,1.4,1.08,3.81c.47,1.61.76,2.63.88,3.06v.09c0,.78-.08,1.24-.24,1.37a.75.75,0,0,1-.49.19c-.38,0-.74-.31-1.09-.93v-.12a50.21,50.21,0,0,0-1.87-9.56c-.53-1.94-.9-3.39-1.1-4.33v13.7a1.75,1.75,0,0,1-.16.82.61.61,0,0,1-.59.28.71.71,0,0,1-.63-.28,1,1,0,0,1-.22-.68Zm1.66-23.77-.16,7v1.6a10.15,10.15,0,0,0,1-1.34l.46-3a3.31,3.31,0,0,0,0-.55,9.11,9.11,0,0,0-.29-2C167.88,37.8,167.52,37.2,167.06,37.15Z" transform="translate(-102.33 -15.9)"/><path d="M176.58,49.2h-.75a.72.72,0,0,0-.62.25v10.7l1.67-.1c1.15,0,1.72.31,1.72.92v.12a1.44,1.44,0,0,1-.71.73,2.23,2.23,0,0,1-.87.28,8.34,8.34,0,0,1-1,0h-.93q-1.11,0-1.38-.51a1.34,1.34,0,0,1-.12-.63V40.8a11.84,11.84,0,0,0-.2-1.77,10.55,10.55,0,0,1-.21-1.78v-.1a7.26,7.26,0,0,1,.75-1.22l2.23-.3a1.66,1.66,0,0,1,.91.31,1,1,0,0,1,.46.82c0,.69-.45,1-1.36,1H175l.23,5.74c0,.46,0,1.14-.07,2s-.08,1.53-.08,1.94a3.17,3.17,0,0,0,.44-.12,4.2,4.2,0,0,1,1-.18.86.86,0,0,1,.62.28,1,1,0,0,1,.27.7,1.33,1.33,0,0,1-.22.73A.66.66,0,0,1,176.58,49.2Z" transform="translate(-102.33 -15.9)"/></svg>