<?xml version="1.0" encoding="iso-8859-1"?>
<!-- Generator: Adobe Illustrator 19.0.0, SVG Export Plug-In . SVG Version: 6.00 Build 0)  -->
<svg version="1.1" id="Capa_1" xmlns="http://www.w3.org/2000/svg" xmlns:xlink="http://www.w3.org/1999/xlink" x="0px" y="0px"
	 viewBox="0 0 512 512" style="enable-background:new 0 0 512 512;" xml:space="preserve">
<g color="#ff5e78">
	<g>
		<path style="fill:#77C47C;stroke:#77C47C" d="M385.271,106l-30-60H156.729l-30,60H121V46H30v60H0v360h512V106H385.271z M60,76h31v30H60V76z M30,226h98.722
			c-4.994,14.082-7.722,29.228-7.722,45c0,15.772,2.728,30.918,7.722,45H30V226z M482,436H30v-90h113.806
			c24.247,36.154,65.487,60,112.194,60c46.707,0,87.947-23.846,112.194-60H482V436z M151,271c0-57.897,47.103-105,105-105
			c57.897,0,105,47.103,105,105c0,57.897-47.103,105-105,105C198.103,376,151,328.897,151,271z M482,316h-98.722
			c4.994-14.082,7.722-29.228,7.722-45c0-15.772-2.728-30.918-7.722-45H482V316z M482,196H368.194
			c-24.247-36.154-65.487-60-112.194-60c-46.707,0-87.947,23.846-112.194,60H30v-60c11.041,0,103.624,0,115.271,0l30-60H336.73
			l30,60H482V196z"/>
	</g>
</g>
<g >
	<g>
		<path style="fill:#77C47C;stroke:#77C47C"  d="M256,196c-41.355,0-75,33.645-75,75s33.645,75,75,75c41.355,0,75-33.645,75-75C331,229.645,297.355,196,256,196z M256,316
			c-24.813,0-45-20.187-45-45s20.187-45,45-45s45,20.187,45,45S280.813,316,256,316z"/>
	</g>
</g>
<g>
</g>
<g>
</g>
<g>
</g>
<g>
</g>
<g>
</g>
<g>
</g>
<g>
</g>
<g>
</g>
<g>
</g>
<g>
</g>
<g>
</g>
<g>
</g>
<g>
</g>
<g>
</g>
<g>
</g>
</svg>
